<svg width="12" height="11" viewBox="0 0 12 11" fill="none" xmlns="http://www.w3.org/2000/svg">
<g clip-path="url(#clip0_116_63)">
<path d="M11.5325 4.68834L11.9997 5.50031C10.9453 7.33364 9.89182 9.1679 8.83715 11.0003H7.07356L10.2198 5.50031L9.7544 4.68834H9.75004L7.07385 0H8.83744L11.5369 4.68834H11.5325ZM5.29689 7.9393H3.51818L1.7819 11.0003H0L2.65789 6.31444H6.2275L6.69295 5.5L6.2275 4.68803H2.65789L0.00232434 0H1.78335L3.51847 3.06224H5.29631L3.54578 0H5.31025L8.00968 4.68834H8.00416L8.47281 5.50031C7.41814 7.33364 6.36347 9.1679 5.30996 11.0003H3.54549L5.2966 7.9393H5.29689Z" fill="#1C69DB"/>
</g>
<defs>
<clipPath id="clip0_116_63">
<rect width="12" height="11" fill="white"/>
</clipPath>
</defs>
</svg>
