<svg width="90" height="42" viewBox="0 0 90 42" fill="none" xmlns="http://www.w3.org/2000/svg">
<path d="M2.34783 36.4818H0V41.9546H90V17.4638H87.5217L85.1739 18.6952L83.2174 15.822L80.2174 4.46596L77.7391 7.88646L74.3478 1.04547H66.7826L63.3913 13.4961L60.6522 15.822L58.3043 14.4538L55.3043 20.2002H45.3913L40.8261 24.5785L38.3478 28.9567L34.4348 32.9245L30.913 30.8722H22.1739L19.0435 36.4818L16.5652 37.9868L13.3043 35.6609L2.34783 36.4818Z" fill="url(#paint0_linear_3404_44)"/>
<path d="M0 37.1485H2.34783L13.3043 36.3121L16.5652 38.6818L19.0435 37.1485L22.1739 31.4334H30.913L34.4348 33.5243L38.3478 29.4818L40.8261 25.0212L45.3913 20.5606H55.3043L58.3043 14.7061L60.6522 16.1L63.3913 13.7303L66.7826 1.04547H74.3478L77.7391 8.01517L80.2174 4.53032L83.2174 16.1L85.1739 19.0273L87.5217 17.7727H90" stroke="#B3D1FD"/>
<defs>
<linearGradient id="paint0_linear_3404_44" x1="45" y1="1.04547" x2="45" y2="41.9546" gradientUnits="userSpaceOnUse">
<stop stop-color="#D8E8FF"/>
<stop offset="1" stop-color="#CEDCF0" stop-opacity="0"/>
</linearGradient>
</defs>
</svg>
