<svg width="90" height="42" viewBox="0 0 90 42" fill="none" xmlns="http://www.w3.org/2000/svg">
<path d="M2.34783 35.9817H0V41.4545H90V16.9638H87.5217L85.1739 18.1952L83.2174 15.3219L80.2174 3.9659L77.7391 7.3864L74.3478 0.54541H66.7826L63.3913 12.996L60.6522 15.3219L58.3043 13.9537L55.3043 19.7002H45.3913L40.8261 24.0784L38.3478 28.4566L34.4348 32.4244L30.913 30.3721H22.1739L19.0435 35.9817L16.5652 37.4867L13.3043 35.1608L2.34783 35.9817Z" fill="url(#paint0_linear_3404_45)"/>
<path d="M0 36.6484H2.34783L13.3043 35.8121L16.5652 38.1818L19.0435 36.6484L22.1739 30.9333H30.913L34.4348 33.0242L38.3478 28.9818L40.8261 24.5212L45.3913 20.0606H55.3043L58.3043 14.206L60.6522 15.6L63.3913 13.2303L66.7826 0.54541H74.3478L77.7391 7.51511L80.2174 4.03026L83.2174 15.6L85.1739 18.5272L87.5217 17.2727H90" stroke="#B3D1FD"/>
<defs>
<linearGradient id="paint0_linear_3404_45" x1="45" y1="0.54541" x2="45" y2="41.4545" gradientUnits="userSpaceOnUse">
<stop stop-color="#D8E8FF"/>
<stop offset="1" stop-color="#CEDCF0" stop-opacity="0"/>
</linearGradient>
</defs>
</svg>
